<mxfile host="65bd71144e">
    <diagram id="dSwWQWWurIZysIBD5OFI" name="Page-1">
        <mxGraphModel dx="948" dy="539" grid="1" gridSize="10" guides="1" tooltips="1" connect="1" arrows="1" fold="1" page="1" pageScale="1" pageWidth="827" pageHeight="1169" math="0" shadow="0">
            <root>
                <mxCell id="0"/>
                <mxCell id="1" parent="0"/>
                <mxCell id="2" value="&lt;font style=&quot;font-size: 50px&quot;&gt;Kubernetes&lt;/font&gt;" style="rounded=0;whiteSpace=wrap;html=1;" parent="1" vertex="1">
                    <mxGeometry x="20" y="520" width="780" height="100" as="geometry"/>
                </mxCell>
                <mxCell id="3" value="" style="rounded=0;whiteSpace=wrap;html=1;" parent="1" vertex="1">
                    <mxGeometry x="20" y="420" width="584" height="100" as="geometry"/>
                </mxCell>
                <mxCell id="4" value="&lt;font style=&quot;font-size: 20px&quot;&gt;Api Gateway&lt;/font&gt;" style="rounded=0;whiteSpace=wrap;html=1;" parent="1" vertex="1">
                    <mxGeometry x="20" y="320" width="146" height="100" as="geometry"/>
                </mxCell>
                <mxCell id="5" value="&lt;span style=&quot;font-size: 20px&quot;&gt;WebSite&lt;/span&gt;" style="rounded=0;whiteSpace=wrap;html=1;" parent="1" vertex="1">
                    <mxGeometry x="166" y="320" width="146" height="100" as="geometry"/>
                </mxCell>
                <mxCell id="6" value="&lt;span style=&quot;font-size: 20px&quot;&gt;Api&lt;/span&gt;" style="rounded=0;whiteSpace=wrap;html=1;" parent="1" vertex="1">
                    <mxGeometry x="312" y="320" width="146" height="100" as="geometry"/>
                </mxCell>
                <mxCell id="7" value="&lt;span style=&quot;font-size: 20px&quot;&gt;Task&amp;nbsp; Workers&lt;/span&gt;" style="rounded=0;whiteSpace=wrap;html=1;" parent="1" vertex="1">
                    <mxGeometry x="458" y="320" width="146" height="100" as="geometry"/>
                </mxCell>
                <mxCell id="8" value="&lt;font style=&quot;font-size: 30px&quot;&gt;DataBase&lt;/font&gt;" style="rounded=0;whiteSpace=wrap;html=1;strokeWidth=2;" parent="1" vertex="1">
                    <mxGeometry x="604" y="420" width="196" height="100" as="geometry"/>
                </mxCell>
                <mxCell id="11" value="" style="shape=image;verticalLabelPosition=bottom;labelBackgroundColor=#ffffff;verticalAlign=top;aspect=fixed;imageAspect=0;image=https://cloudoki.com/content/images/2020/07/Kubernetes-Logo.wine.png;" vertex="1" parent="1">
                    <mxGeometry x="160" y="523.2900000000001" width="140" height="93.42" as="geometry"/>
                </mxCell>
                <mxCell id="16" value="" style="shape=image;verticalLabelPosition=bottom;labelBackgroundColor=#ffffff;verticalAlign=top;aspect=fixed;imageAspect=0;image=data:image/png,iVBORw0KGgoAAAANSUhEUgAAAM4AAADOCAYAAAB2Hz3EAAAQ7UlEQVR4nOzde3Bc5Xk/8O/zri74opsvyNwMuhhHP3BwMITf4GLsMAMuTadAY7e5TBviFgOSPAnJdDpNAko6aZuUpKkl2WicADEkUMyUlKQOIQkIGgrUFSEJDhgky1wCxjddbUsr7Xk6K9lG+CLtec7Zs7vS9/MPIO37vg+r/e559+x73uNARL4xOEQGDA6RAYNDZMDgEBkwOEQGDA6RAYNDZMDgEBkwOEQGDA6RAYNDZMDgEBkwOEQGDA6RAYNDZMDgEBkwOEQGDA6RAYNDZMDgEBkwOEQGDA6RAYNDZMDgEBkwOEQGDA6RAYNDZMDgEBkwOEQGDA6RAYNDZMDgEBkwOEQGDA6RAYNDZMDgEBkwOEQGDA6RAYNDZMDgEBkwOEQGDA6RAYNDZMDgEBkwOEQGeZkuYLJS1cLFV26+s+fg0I2q3gxLHwe6BsIv7ASiItjmCmV198t1r0cw4KTAI06a1CzdfHF3/2CdNTTRUVHVD+ugd3umK8klDE6aDA4OnZ3pGvxQyDmZriGXMDhEBgwOkQGDQ2TA4BAZMDhEBgwOkQGDQ2TA4BAZMDhEBgwOkQGDQ2TA4BAZMDhEBgwOkQGDQ2TA4BAZMDhEBgwOkQGDQ2TA4BAZMDhEBgwOkQGDQ2TA4BAZMDhEBgwOkYFkuoAwFVc0fgrQ21J9vCsp+kj3izd2j/cYVc0HULLsun+7bvc7/XVDCa1R1YKgtXoJRXfvYNBuIifAQYW05Yn7YtfO2l9mup5MmVR3K/CAzwuwONXHTz8Uzxs3NUf8/2se/PTufX3/HKy6yUGBGYAuG9bEU6XVjVd1t9e3ZrqmTJhUUzWBnh52n/feuyu2Z3//HWH3Owk4z8OUfTOZVMFJh3/c+MRCT3VmpuvIRgpdvHz5k5Nq1pIqBmcCc84qeyfTNWQtxd7W1hXDmS4jExicCTzz79d3TTst//FM15GVRO7LdAmZwuCk4M9vqPpcYX7sfzJdRzYRyJbZ82dO2c9+k+p0dFHF+t8DODPlx+cXzn371bX7xnvM0dPR/f2QT9z8yGXv7h2o8Twv8OnoeMLzdr3eezhoP1ET8Q5CXFtPe90Lma4lk6bkBzuLmTOhj95//XMAngupy4SIdIXUF0WMwZlY8sNvKl/3+KVp6JMiwuBMQET0SHiIjuHJASIDBofIgMEhMmBwiAwYHCIDBofIgMEhMmBwiAyy8gvQ2Quaa4YTulxFz1IPp4ugCMA7CnnLqb7pFcoTfa/U7c90nUlzalrOiA/Er4KgCsDpAGYBOCCQt9ThLag829tR257pOidSUt1SpTp0qcI7RyDzoZgD6H7A7YFDZ0F+/s/3vbw2Ky+xaGhQ9+0f3lt81tCMQ9u3r45HMWbWLPKcff7Gs4aGhz+v0FVQnD3ug0WGBHgcwA8WlBVsaWtbO4Q0LfI8mTOXtEzv74qvVehnoLhwoseLYBvgfqAFuO9o4Es/sPE8b3C4IdUxRdDUs7P+f4//eWlN07negH4l5eLFNffurN2W/Nfq6q2Fe7z2GxSohcrlgE7wepBfA3pf0azCjW+3rT2U8phjFFc2boRiWkoPjskvetvrTrh0oaRqwxLV4TUKuVAU85NvsNDRg4A4+VpvR/2XLLX5kfHglC6+p9Tr7fsHBdZA4X/VseAlOHdTX3vds+kOTvKd7Zubmz8L9b6cLN1/qbJfnX6hr2PdvUUVTZsA769SbesQW9XTWfvw2J+NBPjA4IMK/HHK/cTcn/W01z1UXNl8qWrih36er2NE9kD1GysvmfftLVtWJ1Jtlqy3r2uwG4r81MbBf/btXPfRo/9ZUtH8MZXE36ji0lO3cVv7dtb9Uao1WWX0M05RVfPlie7+36niFlNoMLJU8kJ43tNFVes/HXqBYySPiHdubtoG9b5pCQ1GLzWeDQ/3FFU0tkC8K4PWdLgL+X5Cc1RJ5YabVb3nTKHByLUWySnpnY+1vfvkrOpN488OxkjWm3JoRsaR5LQXq1Y9FCuuXP8vHhJbxg3NkUYp9x9AxoJTVNG8JvmCh+gZgTtLHqY93KOQslCKO05yajA0NPyqqF4cTo96k2KC6WiaeB5WeTq8AdDgf3vVK4YTAy+WVay/IpTiTjqEymNt7z6sis+mawyLjASn+Lz1HwcSmwCNhdmvQFObO/tQVtm4KOENP6PQ6WH2K6nO88Om3sfCnKInj6IJwY9LFzSnvC2XH6WVTX8H1evS0XcQkQenuLLpWhXcnw2fryZSsrCxYki95wUozHQt2UwVxYlE4rHiqubqcDvGuR7w1VD7DEmkwZlXffdc1cQjmf5slYrkFMGL4zmBZObIkGsU5ep5jy5Z0pL6Z5iJiJ4ZypQyDSIt6mCifwsgga/Xj0JxZdNdSMMGh5Ob1rzWFb8101VEIbLgFFVtXArIsqjGC2JGxaZyQNdkuo6cpLij+ILvzMp0GekW3RHHG/pOVKcKg4rJwH3Jf2S6jlyk0DIcOpxVZ8DSIZIlNyXzN5R5GF5oay2eiLyowDanuk1FDylksQAfUmAFVEP9f5iz8LtFg/GDVxmbq8D9WgXPn1irrjj67XYW6RZxjwnwogheTcCrFk8uhehlqphv7VRFrwdwe7ilHkcwCJX9EMzF6BZeoz8WjWTJTSR/SI0N32Y5iybJPyxkdc/Oup8d96sHcOT7FQ+J70H1grBqjcf7rwPE/5FYpN+p3NDTGV2tQQhkS0HB9DX7dqzpO/53DQ3qvvW9pgYFvmSaJSguLFnYWNGzo74zrHoBURH8wolsKETsmd3tN+8VEU3W2vRA07z4kF4JyCdV5dHwxjy1aIID+VO/uyEJ3K48J8sOdNS+earH9HTc2lZdvXXJHq/jblX9RBi1inNr1PO7c5Pszxf3oQM7o63VSiG393XW//2pft/QIF7yiFFc1fgsPPn+yPTL7xjD+CiAxsDFjoojhlW97fXHQiFyy9ha3z7yBvVASONNKO2fcVRVIPB7fj9RUDBt6XihOaq9/drBwmlurUACv7sla1VvoiUdJzZzsYKro67VSiDt/eOEZqzejvqfAFhnGki1xtTuBKIxF1vZNyY02SDtwSmuaZ41dg6aChXZsm/HmrdTffze7bX9Lk8Cr1VL1up3hYBA2nra16a8HWxYtVoJ5It+Ht/bWX8/BL7vvKaQcr9tTiY5PevuqH0yjL7ClPbg5A/n+X4CnXfav/pt0/1a3dMA3vXbbixLrarY4rdNslYRmfAIlQ4F0+Vpv20E2GAYKpTgqIf6MPoJW9qDk9CheX7bTCsu/K1lLBH5jaXdUZZaxel202CKX5naBbT8/83d67dNDPKS3zYCzPXb5ngKHO7bVf9K0H7SIf3f44jM8dtk4NBh3y9gjLz7B/zsYKhV4UzvrOr8vxjD8PO2Lt93l5vtql71PZDqQd9tjifi+yLDqERxcuCE050TEY0vsozlBAss7Y4y1QrPVqtKhaVdUAmX8P2hfb/3puXNIdC0GaMvzt6gfaRL2oMjIr6fwATUdAWfp95FlnZHWWpVlWss98FU9Zb6bRMGSXg3+G2TwKDhzcH/c3k8hZouz45C2oOT52L+n0APnymp2rDET5Pi89d/GAEvZDPVCq154Y3tdX5azKjYVK7AOf7HCk5Fb5lT0+Lr4sGRPQl8j4OUz4qO00nW3iUi7cE5r8jtgfi+TYZTTdxV/sHNM1J58JyF3y3SIfw06Fq40VrFsGTD+0px5V0pTxNjMvBMptbtqerMwcH4lgsueCilVeql1Y3LobLS7zgO+oSpwByR9uAc2YHG9ylQVb3kUH/PT04fWal8arOqms8ZHDr0K+s+AGMlaxXVVr/tVFGsGn9qoqPkecvvOa2oYn2rqlYFKjQo1aVvHHr3Z/Oq7x73zNeM8++6aDihWw0hP1xdVvhUsCKzWySro0XxiKmh6hUDOPxKcVXjl2ef3/iBkVUIR77hL13QvLiocv0/DXnD7Qj3hfgjY7szPC/xfFFFY0tZVePSsZ97yipb5hdXNa3b/3rfOwACb9IRDl12yDv4WnFl0+2zFzQfO2HQ0KBu9LltvNvF4y8ILJd4u8ePbtk1WUUyXSitaTo3MeDtCtyRHLutYGkYK41Ptj1UaLVCkik/oNCZCOHS65NtD1VW2VIyrIPh3GZREIdK3+iRO9heEA7u6pMsdjXUK8/2ddZfHqSWdInkiNP9ct3rIvLjwB0lw6KYk87l+aHVmvwYDp0dRmgiMbI9V7LegBuoCH5zstBMNpFdyKb5sS9AsvcsyVhHap3UU4008aB5qzNdRBQiC07fjlt3CNAc1XhBHKnVsj5rSnPA3X2dt+7IdB1RiHSzjjxXdnvyUB7lmFa5VGtWELzU07nurzNdRlQiDc6B9k/1njYtdo3A7YxyXIv3apWsrzXTBG7XyiXz0rIhYbaKfM+qvdtrd0ss/2pAdofc9UFAQl3bNFprQfi1CuKAZMVtSgIT6ZilM2r8bL4+GWRks7ee9rUdhQVYAvi/NuSkRAZczC0DtD+U/sYIv1bEIbEVEBwIpT/fw0tolzOIk0dLyssX7dp140BYfeaKjO2SuG9H/dsrLyn/iAi+OrJjiZXgLSexP+hpr0v5Kky/wqtVdjvJu7yvo/a/Qy3QDyffEEjjyBkwIxHpF3Uf7+2o/5O3nl19ONwCc0NGtxdNHt57d667ozBfKkf/mJL6O5fIXgi+nu9mXdDTcWvb6M+Q8vUbIrLVz71xgtXq9o3WWrbwWK3QlF9wyVqP//LTTFHT21m/TvLc5QL5KSApT7EEOODE/W3hNHdG7666B0OpZxxO5D/SPYZVVm0QWFbZUqIYvCqhshKilwEyD6pzjpS5W6BvQKTTQR+uKiv8USaXdZy61iSJpFbLygEZuSNb3bHV3OVVG08/7CVWQfQPFZgvirNHdrURNwToHgF+LypPQbzH57rq/2pvv9Z+xJ1Esio4J9PQoK61tdW1tq7I+i9Po67VtOTGyaa+jvqbxntIdfXWQgZkfFkfHDo121o12dzXWf+X6appqsjKWyhQ+ogYbxlJ78PgTDEKBicMDM4Uw7vLhYPBmWqsd/em92FwphiFMjghYHCmnNy4lWS2Y3CmGBEeccLA4EwxypMDoWBwphhRTtXCwOBMMTw5EA4GZ8rhEScMDM5Uw5MDoWBwphrl3zwMfBJz2EXzzz8In/eQEchp6ato6mBwclhr64phAXztvKmmvaDpeAxOjvMfBJXzlt/Do05ADE4Oq67eWmj5G3btP8yjTkAMTg7bO23XdEu7/HiCwQmIwclh1gDEh50pcPQeBieHDSUKTMGJqccjTkAMTg5zXtx05EioMjgBMTg5zBoAFxNO1QJicHKYi+WZguMpv8sJisHJYQ5ur4zeEzVlIuhzkhf2nSKmHAYnhx1ov/l3ebFpiyDyREoNBL90Bfkf7G6/JbQ7FkxV3MlzElBVKa5svA2Cr0FPcoWnyJCD3PG5v6j9ekODmO9SQO9hcCaRssrGRcPA96G66L2fyisuJp9M521QpiJO1SaRrp31vy13VZeK4FsAPBE0l8wrv5ihIUrRnJqWMzJdAxHR+3CqRmTA4BAZMDhEBgwOkQGDQ2TA4BAZMDhEBgwOkQGDQ2TA4BAZMDhEBgwOkQGDQ2TA4BAZMDhEBgwOkQGDQ2TA4BAZMDhEBgwOkQGDQ2TA4BAZMDhEBgwOkQGDQ2TA4BAZMDhEBgwOkQGDQ2TA4BAZMDhEBgwOkQGDQ2TA4BAZMDhEBgwOkQGDQ2TA4BAZMDhEBgwOkQGDQ2TA4BAZMDhEBgwOkcH/BQAA//9oo6U0AJgGZwAAAABJRU5ErkJggg==;sketch=0;" vertex="1" parent="1">
                    <mxGeometry x="240" y="410" width="130" height="130" as="geometry"/>
                </mxCell>
            </root>
        </mxGraphModel>
    </diagram>
</mxfile>